<?xml version="1.0" encoding="UTF-8"?>
<svg xmlns="http://www.w3.org/2000/svg" xmlns:xlink="http://www.w3.org/1999/xlink" width="50pt" height="50pt" viewBox="0 0 50 50" version="1.1">
<g id="surface8311991">
<path style=" stroke:none;fill-rule:nonzero;fill:rgb(100%,100%,100%);fill-opacity:1;" d="M 45.832031 25 C 45.832031 36.507812 36.507812 45.832031 25 45.832031 C 13.492188 45.832031 4.167969 36.507812 4.167969 25 C 4.167969 13.492188 13.492188 4.167969 25 4.167969 C 36.507812 4.167969 45.832031 13.492188 45.832031 25 Z M 45.832031 25 "/>
<path style=" stroke:none;fill-rule:nonzero;fill:rgb(1.176471%,32.941177%,58.823532%);fill-opacity:1;" d="M 30.207031 32.292969 L 14.582031 32.292969 C 12.855469 32.292969 11.457031 30.894531 11.457031 29.167969 L 11.457031 17.707031 L 27.082031 17.707031 C 28.808594 17.707031 30.207031 19.105469 30.207031 20.832031 Z M 30.207031 32.292969 "/>
<path style=" stroke:none;fill-rule:nonzero;fill:rgb(1.176471%,32.941177%,58.823532%);fill-opacity:1;" d="M 38.542969 32.292969 L 32.292969 28.125 L 32.292969 21.875 L 38.542969 17.707031 Z M 38.542969 32.292969 "/>
</g>
</svg>
